<?xml version="1.0" encoding="UTF-8"?>
<svg width="167px" height="38px" viewBox="0 0 167 38" version="1.1" xmlns="http://www.w3.org/2000/svg" xmlns:xlink="http://www.w3.org/1999/xlink">
    <title>logo-black</title>
    <defs>
        <polygon id="path-1" points="36.328 1.11022302e-15 0 1.11022302e-15 0 36.328048 36.328 36.328048"></polygon>
    </defs>
    <g id="Page-1" stroke="none" stroke-width="1" fill="none" fill-rule="evenodd">
        <g id="logo-black" transform="translate(0, 0.7979)">
            <g id="Clipped">
                <mask id="mask-2" fill="white">
                    <use xlink:href="#path-1"></use>
                </mask>
                <g id="Path"></g>
                <g id="Group" mask="url(#mask-2)" fill-rule="nonzero">
                    <g transform="translate(0.0029, 0)" id="Path">
                        <path d="M27.0695703,28.395048 C26.3245703,27.731248 25.4914703,27.288748 24.4550703,27.357748 C24.3692703,27.363548 24.3204703,27.363548 24.3597703,27.488148 C24.5110703,27.968948 24.6319703,28.459048 24.7112703,28.956748 C24.8118703,29.588548 24.8653703,30.224948 24.8374703,30.865448 C24.8317703,31.000748 24.8752703,31.055248 25.0048703,31.100248 C25.9378703,31.422648 26.4930703,32.389748 26.2612703,33.348848 C26.0744703,34.122048 25.5752703,34.641448 24.7867703,34.809848 C23.9928703,34.979448 23.3145703,34.730648 22.8238703,34.079448 C22.3643703,33.470048 22.2987703,32.783748 22.6232703,32.098248 C22.9526703,31.402448 23.5368703,31.033148 24.3074703,30.992448 C24.4748703,30.983648 24.4859703,30.921148 24.4870703,30.791548 C24.4950703,30.055348 24.4119703,29.329048 24.2658703,28.608448 C24.0836703,27.710248 23.7720703,26.858548 23.3565703,26.041948 C22.7639703,24.877848 21.8865703,23.937748 21.0057703,22.995748 C20.3232703,22.265948 19.6228703,21.548448 19.0351703,20.737948 C18.5975703,20.134348 18.2626703,19.472348 18.0819703,18.741548 C18.0777703,18.724448 18.0670703,18.708748 18.0472703,18.666448 C17.8848703,18.869148 17.7944703,19.092148 17.7010703,19.311148 C17.4612703,19.872148 17.3361703,20.464348 17.2514703,21.064148 C17.1771703,21.589248 17.1599703,22.120048 17.1287703,22.649348 C17.0803703,23.477448 17.1355703,24.308548 17.0562703,25.135448 C16.9700703,26.034748 16.8297703,26.921848 16.5182703,27.776548 C16.4126703,28.066148 16.3078703,28.355048 16.1758703,28.633148 C16.1464703,28.694948 16.1720703,28.705248 16.2090703,28.730348 C16.9319703,29.223848 17.2621703,29.958548 17.4676703,30.771748 C17.5405703,31.060948 17.6034703,31.350948 17.5885703,31.650848 C17.5798703,31.828048 17.7059703,31.745748 17.7654703,31.736148 C18.3149703,31.650848 18.8216703,31.763248 19.2963703,32.042948 C20.1600703,32.552048 20.5802703,33.591648 20.3476703,34.551148 C20.1039703,35.555548 19.2605703,36.282748 18.2039703,36.325048 C17.3186703,36.360748 16.6066703,35.974848 16.1369703,35.210448 C15.4101703,34.027248 15.9032703,32.504748 17.1187703,31.932448 C17.1882703,31.899748 17.2255703,31.864648 17.2243703,31.778148 C17.2091703,30.802648 16.9300703,29.929948 16.2395703,29.214348 C16.2349703,29.209748 16.2311703,29.204848 16.2265703,29.200648 C16.0145703,28.995648 16.0191703,28.998248 15.8769703,29.260748 C15.3480703,30.238648 14.6849703,31.115048 13.8746703,31.877948 C13.8026703,31.945848 13.7698703,31.983148 13.8270703,32.090248 C14.2926703,32.964348 13.9967703,34.066848 13.1604703,34.607548 C12.3334703,35.142548 11.2410703,34.967648 10.6157703,34.200248 C9.96521027,33.401848 10.0395703,32.261748 10.7869703,31.564748 C11.5392703,30.863248 12.7067703,30.871548 13.4506703,31.590648 C13.5387703,31.676048 13.5712703,31.662648 13.6543703,31.583348 C14.5140703,30.765648 15.1973703,29.818648 15.7171703,28.756648 C16.2105703,27.748748 16.5281703,26.687548 16.6444703,25.565648 C16.7496703,24.550048 16.7474703,23.530348 16.7919703,22.512548 C16.8206703,21.860948 16.8400703,21.208948 16.9632703,20.566748 C17.1069703,19.816148 17.3285703,19.091648 17.7597703,18.411948 C17.3361703,18.498348 16.9673703,18.649648 16.6108703,18.833348 C15.6618703,19.322648 14.8748703,20.022648 14.1073703,20.749348 C13.2909703,21.521748 12.5042703,22.327348 11.5808703,22.978948 C10.9157703,23.448448 10.2039703,23.830248 9.44434027,24.121348 C9.33075027,24.164848 9.30328027,24.209048 9.31969027,24.333948 C9.43638027,25.213148 9.13783027,25.983648 8.67493027,26.708048 C8.52507027,26.942448 8.34966027,27.156148 8.14678027,27.369948 C8.43695027,27.581048 8.68866027,27.823848 8.88083027,28.133248 C9.38143027,28.938448 9.31131027,30.056048 8.69629027,30.788948 C7.73313027,31.936648 5.99399027,31.913048 5.08001027,30.731348 C4.68841027,30.225348 4.55991027,29.651448 4.63274027,29.007748 C4.78946027,27.625648 6.26166027,26.651648 7.67969027,27.153148 C7.74837027,27.177548 7.80208027,27.197348 7.86540027,27.129948 C8.54258027,26.407048 8.98948027,25.585048 8.98453027,24.566048 C8.98453027,24.509648 8.97348027,24.452948 8.96620027,24.396448 C8.95672027,24.321848 8.92389027,24.310048 8.84958027,24.333948 C8.08847027,24.581748 7.30793027,24.732248 6.50989027,24.796248 C6.14880027,24.825148 5.78732027,24.825648 5.42623027,24.817548 C5.32023027,24.815348 5.28515027,24.836248 5.24664027,24.944948 C4.97820027,25.706248 4.37804027,26.212348 3.53345027,26.285448 C2.79221027,26.349448 2.02388027,25.931448 1.68453027,25.259248 C1.22430027,24.347348 1.50112027,23.278148 2.36934027,22.718348 C3.19486027,22.185948 4.29605027,22.382148 4.92558027,23.166848 C5.20202027,23.511248 5.31985027,23.909148 5.33929027,24.336648 C5.34425027,24.448748 5.36637027,24.454048 5.45673027,24.456348 C7.01584027,24.495648 8.49801027,24.172848 9.91336027,23.525448 C10.9725703,23.040648 11.8858703,22.349048 12.7296703,21.557248 C13.4632703,20.868948 14.1755703,20.156448 14.9499703,19.513948 C15.7491703,18.850448 16.6139703,18.299148 17.6461703,18.062048 C17.6557703,18.059748 17.6617703,18.044948 17.6781703,18.025848 C17.2346703,17.745748 16.7546703,17.562848 16.2525703,17.432948 C15.3007703,17.186848 14.3272703,17.141848 13.3503703,17.114048 C12.3250703,17.085048 11.2975703,17.097248 10.2790703,16.937148 C9.42491027,16.803048 8.60096027,16.569848 7.81163027,16.218048 C7.68045027,16.159848 7.61569027,16.166648 7.52681027,16.294748 C7.19317027,16.774148 6.70588027,17.055248 6.17663027,17.265348 C5.69772027,17.455448 5.19897027,17.572448 4.68079027,17.578148 C4.56944027,17.579348 4.55991027,17.615548 4.57479027,17.710348 C4.74370027,18.776148 4.21064027,19.772348 3.24214027,20.206348 C2.29460027,20.631248 1.15757027,20.369048 0.503256268,19.531148 C0.0289180684,18.923648 -0.115213732,18.238448 0.0925949684,17.466448 C0.519652268,15.881248 2.53750027,15.217448 3.83887027,16.370148 C4.07909027,16.582748 4.26784027,16.833548 4.40015027,17.123548 C4.43104027,17.191348 4.45430027,17.226048 4.53094027,17.223348 C5.49601027,17.190948 6.37490027,16.928448 7.09441027,16.252748 C7.34530027,16.016948 7.34035027,16.008148 7.04750027,15.852248 C6.06681027,15.330648 5.20241027,14.656148 4.43713027,13.854348 C4.36431027,13.777748 4.32084027,13.769848 4.23543027,13.815148 C3.37712027,14.269748 2.27821027,14.034248 1.70702027,13.131048 C0.961200268,11.951348 1.66241027,10.458348 2.96836027,10.207948 C3.86976027,10.035348 4.67278027,10.434348 5.08344027,11.250948 C5.44110027,11.962348 5.33205027,12.821348 4.73951027,13.440848 C4.65639027,13.527748 4.66096027,13.554448 4.74256027,13.639048 C6.22811027,15.179348 8.02364027,16.144148 10.1230703,16.545448 C10.6088703,16.638448 11.1029703,16.667348 11.5960703,16.705048 C12.6388703,16.785148 13.6859703,16.747048 14.7280703,16.823648 C15.8231703,16.904348 16.8838703,17.119348 17.8413703,17.696248 C17.8562703,17.705448 17.8771703,17.704648 17.9142703,17.712248 C17.8623703,17.403648 17.7502703,17.125448 17.6255703,16.852648 C17.1702703,15.856448 16.4694703,15.037248 15.7285703,14.248748 C15.0418703,13.517848 14.3226703,12.817048 13.6970703,12.030548 C13.0533703,11.221548 12.5420703,10.337148 12.1866703,9.365048 C12.1653703,9.306348 12.1477703,9.283148 12.0814703,9.296448 C11.1937703,9.472548 10.4258703,9.149738 9.68919027,8.711908 C9.46117027,8.576258 9.24346027,8.420768 9.05967027,8.227918 C8.96544027,8.129228 8.92540027,8.173868 8.86558027,8.253468 C8.21546027,9.119238 7.16075027,9.443548 6.16634027,9.049528 C5.34578027,8.724128 4.85771027,8.106768 4.72197027,7.229188 C4.57059027,6.249848 5.06285027,5.319288 5.87998027,4.888298 C6.76765027,4.420348 7.64233027,4.490848 8.44423027,5.103218 C9.14353027,5.637088 9.49510027,6.621378 9.22210027,7.473818 C9.13474027,7.745928 9.20685027,7.899078 9.41845027,8.066728 C10.0525703,8.568978 10.7457703,8.923368 11.5639703,8.978998 C12.0368703,9.011068 12.0532703,8.967188 11.9098703,8.522488 C11.7275703,7.956978 11.6246703,7.375128 11.5670703,6.782188 C11.5216703,6.315768 11.4946703,5.850488 11.5041703,5.382538 C11.5056703,5.297938 11.4751703,5.268218 11.3931703,5.241158 C10.8563703,5.064728 10.4589703,4.721778 10.2206703,4.207718 C9.68307027,3.047758 10.4002703,1.672878 11.6772703,1.491868 C12.5576703,1.367258 13.2520703,1.706028 13.6779703,2.485308 C14.2929703,3.611348 13.6558703,5.021288 12.3712703,5.290318 C12.2599703,5.313568 12.1469703,5.341388 12.0326703,5.324618 C11.9094703,5.306708 11.8667703,5.356628 11.8656703,5.476278 C11.8587703,6.116088 11.9147703,6.749418 12.0196703,7.380828 C12.1260703,8.023328 12.3010703,8.645218 12.5313703,9.253048 C12.9420703,10.335248 13.5315703,11.310348 14.2945703,12.180748 C15.1447703,13.150548 16.0751703,14.047148 16.8995703,15.040648 C17.4261703,15.675148 17.8535703,16.369048 18.1380703,17.145248 C18.1986703,17.310248 18.2371703,17.483248 18.2931703,17.677548 C18.4937703,17.391448 18.6241703,17.089648 18.7370703,16.779048 C19.0466703,15.928148 19.1370703,15.039148 19.1983703,14.143648 C19.2418703,13.510648 19.2110703,12.876948 19.2349703,12.244048 C19.2788703,11.087448 19.3741703,9.936648 19.7303703,8.826258 C19.8489703,8.455798 19.9747703,8.085408 20.1513703,7.737138 C20.1924703,7.655958 20.1813703,7.622028 20.1070703,7.571758 C19.5309703,7.181518 19.2171703,6.603848 18.9985703,5.968618 C18.8548703,5.550968 18.7503703,5.119988 18.7572703,4.672618 C18.7591703,4.546858 18.6985703,4.565918 18.6150703,4.578498 C17.9271703,4.682898 17.2976703,4.531998 16.7698703,4.078918 C16.0919703,3.496268 15.8052703,2.753198 15.9867703,1.862648 C16.1891703,0.869208 16.8141703,0.281988 17.7857703,0.042298 C17.8139703,0.035439 17.8516703,0.044584 17.8577703,1.11022302e-15 C18.0990703,1.11022302e-15 18.3400703,1.11022302e-15 18.5815703,1.11022302e-15 C18.5933703,0.012194 18.6039703,0.033152 18.6172703,0.035057 C19.6041703,0.185197 20.4201703,0.956848 20.5478703,2.107288 C20.6416703,2.952488 20.1901703,3.936398 19.2270703,4.386438 C19.1336703,4.430258 19.1164703,4.482848 19.1152703,4.574298 C19.1095703,5.074638 19.2228703,5.552118 19.4042703,6.012438 C19.5816703,6.461338 19.8191703,6.875138 20.1982703,7.192238 C20.3045703,7.281378 20.3777703,7.304658 20.4349703,7.140378 C20.4734703,7.029528 20.5455703,6.929668 20.6046703,6.826018 C21.1201703,5.921748 21.7546703,5.110838 22.5191703,4.403208 C22.5679703,4.357858 22.5824703,4.335758 22.5439703,4.266778 C22.1729703,3.609068 22.2366703,2.715468 22.7223703,2.134728 C23.2435703,1.511688 23.9238703,1.272378 24.7139703,1.470908 C25.5135703,1.671728 26.0084703,2.222368 26.1453703,3.019558 C26.2841703,3.828168 25.9615703,4.536568 25.2550703,4.985088 C24.5114703,5.457228 23.5665703,5.355488 22.9076703,4.745018 C22.8253703,4.668428 22.7754703,4.638698 22.6854703,4.742728 C22.5366703,4.914588 22.3609703,5.062448 22.2099703,5.232778 C21.1140703,6.468958 20.3385703,7.873538 19.9305703,9.482748 C19.7429703,10.222448 19.6422703,10.973148 19.6213703,11.726848 C19.5911703,12.804148 19.5610703,13.881048 19.4877703,14.955648 C19.4325703,15.764248 19.2544703,16.550748 18.9177703,17.293848 C18.8270703,17.493948 18.7214703,17.686748 18.6115703,17.905048 C18.6786703,17.892148 18.7160703,17.887548 18.7518703,17.878048 C19.4256703,17.696248 20.0250703,17.364348 20.5928703,16.967648 C21.5349703,16.309948 22.3334703,15.488348 23.1567703,14.697348 C24.2663703,13.631448 25.4818703,12.732148 26.9353703,12.187948 C27.0318703,12.151748 27.0459703,12.106748 27.0310703,12.020648 C26.9262703,11.419748 27.0592703,10.854648 27.2980703,10.307048 C27.5176703,9.803248 27.8138703,9.349048 28.2066703,8.950838 C27.6076703,8.555658 27.2598703,8.009248 27.1527703,7.321008 C26.9750703,6.177438 27.7391703,4.983178 28.9734703,4.738928 C29.8302703,4.569348 30.5741703,4.814378 31.1560703,5.456848 C31.7275703,6.087508 31.8987703,6.850778 31.6501703,7.659808 C31.2536703,8.950838 29.9583703,9.591048 28.6722703,9.168828 C28.5707703,9.135658 28.5162703,9.156598 28.4449703,9.227848 C28.1784703,9.493848 27.9656703,9.798348 27.7936703,10.129848 C27.5153703,10.665948 27.3101703,11.221248 27.3658703,11.844948 C27.3799703,12.001248 27.4192703,12.016148 27.5576703,11.971948 C28.6348703,11.628548 29.7395703,11.467748 30.8703703,11.504748 C31.0130703,11.509248 31.0732703,11.468948 31.1224703,11.332548 C31.4801703,10.338648 32.4268703,9.892448 33.3202703,10.072648 C34.7272703,10.356248 35.3442703,11.955948 34.5064703,13.120848 C33.7976703,14.106648 32.2644703,14.162648 31.4801703,13.234348 C31.1784703,12.877748 31.0255703,12.465048 31.0145703,12.004648 C31.0111703,11.855248 30.9432703,11.865148 30.8444703,11.866348 C30.4769703,11.869348 30.1100703,11.870948 29.7425703,11.905248 C28.2649703,12.044248 26.8869703,12.487848 25.6057703,13.235148 C24.5640703,13.842548 23.7042703,14.671348 22.8466703,15.501648 C22.3186703,16.013448 21.7756703,16.509648 21.2010703,16.967648 C20.4444703,17.570548 19.6208703,18.054448 18.6527703,18.277048 C18.6771703,18.297248 18.6897703,18.309748 18.7046703,18.319348 C18.7420703,18.342948 18.7797703,18.365848 18.8182703,18.387548 C19.6990703,18.882148 20.6660703,19.055948 21.6551703,19.145848 C22.6152703,19.233148 23.5799703,19.208748 24.5415703,19.251348 C25.1562703,19.278848 25.7682703,19.324548 26.3733703,19.437348 C27.1351703,19.579448 27.8714703,19.804748 28.5791703,20.121748 C28.6558703,20.156048 28.7229703,20.186548 28.7835703,20.085948 C28.9566703,19.798648 29.2071703,19.589448 29.4866703,19.410348 C30.1131703,19.009448 30.8017703,18.799048 31.5407703,18.753348 C31.7073703,18.743048 31.7939703,18.727848 31.7630703,18.511348 C31.6795703,17.929048 31.8202703,17.392948 32.1515703,16.900248 C33.0053703,15.629748 34.9728703,15.599248 35.8795703,16.834648 C36.0926703,17.125448 36.1956703,17.452748 36.3283703,17.773648 L36.3283703,18.725148 C36.1872703,18.959948 36.1373703,19.232348 35.9889703,19.469348 C35.1241703,20.850348 33.0464703,20.891848 32.1412703,19.537948 C32.1027703,19.480448 32.0478703,19.427048 32.0299703,19.363348 C31.9681703,19.145848 31.8327703,19.079548 31.6132703,19.101648 C30.7179703,19.192348 29.8912703,19.440748 29.2334703,20.095048 C29.0127703,20.314548 29.0134703,20.316848 29.2853703,20.461648 C30.2695703,20.987148 31.1452703,21.653948 31.9068703,22.468748 C31.9822703,22.549548 32.0268703,22.548748 32.1195703,22.501048 C33.0899703,22.004948 34.2929703,22.398648 34.7497703,23.379448 C35.1756703,24.293648 34.8759703,25.373548 33.9551703,25.905148 C33.0872703,26.406248 31.9742703,26.141448 31.4049703,25.301548 C30.8879703,24.539048 30.9649703,23.560848 31.6036703,22.890548 C31.6940703,22.795648 31.6803703,22.752548 31.5968703,22.666848 C30.1425703,21.176548 28.3972703,20.215848 26.3569703,19.801648 C25.6107703,19.650348 24.8496703,19.632448 24.0904703,19.590948 C23.0026703,19.531448 21.9083703,19.569548 20.8265703,19.408348 C19.9831703,19.282648 19.1744703,19.047848 18.4174703,18.573848 C18.5120703,18.986148 18.6516703,19.346648 18.8297703,19.694148 C19.3661703,20.740948 20.1554703,21.590748 20.9592703,22.429448 C21.7226703,23.226248 22.5042703,24.008548 23.1201703,24.932348 C23.5361703,25.556848 23.8979703,26.210348 24.1435703,26.923348 C24.1644703,26.983548 24.1881703,27.038048 24.2757703,27.022048 C25.2054703,26.851748 26.0015703,27.198148 26.7595703,27.675948 C26.9349703,27.786448 27.0932703,27.924448 27.2594703,28.049748 C27.1965703,28.164848 27.1332703,28.279948 27.0703703,28.395448 L27.0695703,28.395048 Z" fill="#000000"></path>
                        <path d="M27.0683703,28.393848 C27.1312703,28.278748 27.1945703,28.163748 27.2575703,28.048248 C27.6403703,27.513248 28.1375703,27.146648 28.7876703,26.998748 C30.1233703,26.695048 31.4934703,27.632148 31.6843703,28.982948 C31.9025703,30.527048 30.7456703,31.820048 29.1841703,31.776148 C28.0795703,31.745348 27.0767703,30.840248 26.9131703,29.753048 C26.8418703,29.279848 26.9212703,28.836248 27.0683703,28.393848 Z" fill="#4DACE1"></path>
                    </g>
                </g>
            </g>
            <path d="M63.0144,26.935448 C62.4741,26.730248 61.9338,26.490848 61.3935,26.217348 C60.86,25.943748 60.3266,25.635948 59.7931,25.293948 C58.3911,26.237748 56.8249,26.709748 55.0946,26.709748 C53.9045,26.709748 52.7931,26.487448 51.7603,26.042848 C50.7276,25.591448 49.8215,24.965748 49.0417,24.165448 C48.2689,23.365348 47.6636,22.435148 47.2259,21.375048 C46.7882,20.314948 46.5693,19.172848 46.5693,17.948648 C46.5693,16.724348 46.7882,15.578848 47.2259,14.511848 C47.6705,13.444948 48.2826,12.511348 49.0623,11.711148 C49.8419,10.904148 50.7482,10.274948 51.7809,9.823548 C52.8137,9.372148 53.9216,9.146488 55.1047,9.146488 C56.2948,9.146488 57.4062,9.372148 58.439,9.823548 C59.4717,10.274948 60.3779,10.904148 61.1575,11.711148 C61.9373,12.511348 62.5459,13.444948 62.9836,14.511848 C63.4214,15.571948 63.6402,16.710648 63.6402,17.928048 C63.6402,18.871948 63.4966,19.774648 63.2093,20.636448 C62.9289,21.498148 62.5151,22.284748 61.968,22.995948 C62.3988,23.194348 62.8229,23.375548 63.2401,23.539748 C63.6573,23.703848 64.0711,23.847548 64.4814,23.970548 L63.0144,26.935448 Z M55.0946,23.508948 C55.4228,23.508948 55.7408,23.467948 56.0486,23.385848 C56.3632,23.303748 56.6505,23.190848 56.9103,23.047248 C56.4727,22.664348 56.052,22.267648 55.6485,21.857248 C55.2518,21.446948 54.8859,21.026348 54.5508,20.595348 L55.9665,18.830848 C56.8693,19.781548 57.8541,20.619348 58.9211,21.344248 C59.2904,20.886048 59.5708,20.362848 59.7623,19.774648 C59.9607,19.186548 60.0599,18.570948 60.0599,17.928048 C60.0599,17.114248 59.9367,16.368748 59.6905,15.691648 C59.4511,15.007648 59.1092,14.416148 58.6647,13.916848 C58.2269,13.417648 57.7037,13.031148 57.095,12.757648 C56.4931,12.484048 55.8297,12.347148 55.1047,12.347148 C54.3866,12.347148 53.7233,12.484048 53.1145,12.757648 C52.5127,13.031148 51.9895,13.420948 51.5449,13.927048 C51.1004,14.426448 50.755,15.017948 50.5087,15.701848 C50.2694,16.378948 50.1497,17.127848 50.1497,17.948648 C50.1497,18.769348 50.2694,19.518248 50.5087,20.195348 C50.7482,20.872448 51.0867,21.460548 51.5244,21.959848 C51.9689,22.452248 52.4921,22.835248 53.094,23.108848 C53.7027,23.375548 54.3696,23.508948 55.0946,23.508948 Z M72.2886,26.709748 C70.3736,26.709748 68.9921,26.330148 68.144,25.570948 C67.296,24.811848 66.8719,23.570448 66.8719,21.846948 L66.8719,15.876348 L70.0215,15.876348 L70.0215,21.108348 C70.0215,22.216348 70.1924,22.999448 70.5344,23.457648 C70.8832,23.915848 71.4679,24.145048 72.2886,24.145048 C73.123,24.145048 73.7078,23.915848 74.0429,23.457648 C74.3849,22.999448 74.5559,22.216348 74.5559,21.108348 L74.5559,15.876348 L77.7058,15.876348 L77.7058,21.846948 C77.7058,23.570448 77.2817,24.811848 76.4335,25.570948 C75.592,26.330148 74.2105,26.709748 72.2886,26.709748 Z M85.5451,26.709748 C84.5804,26.709748 83.7022,26.470348 82.9086,25.991648 C82.1223,25.506048 81.4962,24.842548 81.0312,24.001348 C80.5725,23.153348 80.3441,22.189048 80.3441,21.108348 C80.3441,20.055048 80.5661,19.111248 81.0102,18.276948 C81.4552,17.435648 82.0677,16.772248 82.8467,16.286648 C83.6339,15.794248 84.5331,15.547948 85.5451,15.547948 C86.2904,15.547948 86.9848,15.691648 87.6273,15.978848 C88.2771,16.259248 88.8077,16.652548 89.2181,17.158748 L89.2181,15.876348 L92.3669,15.876348 L92.3669,26.381348 L89.2181,26.381348 L89.2181,24.996448 C88.7394,25.550448 88.1888,25.974548 87.5663,26.268548 C86.9439,26.562648 86.2704,26.709748 85.5451,26.709748 Z M86.4788,24.032148 C87.0258,24.032148 87.5117,23.909048 87.9358,23.662848 C88.359,23.409748 88.6912,23.064348 88.9305,22.626648 C89.1699,22.188948 89.29,21.689648 89.29,21.128848 C89.29,20.561148 89.1662,20.061948 88.9205,19.631048 C88.6812,19.193348 88.349,18.851448 87.9249,18.605148 C87.5081,18.352148 87.0258,18.225548 86.4788,18.225548 C85.9382,18.225548 85.4559,18.352148 85.0318,18.605148 C84.6077,18.851448 84.2728,19.193348 84.0271,19.631048 C83.7805,20.068848 83.6576,20.568048 83.6576,21.128848 C83.6576,21.689648 83.7768,22.188948 84.0162,22.626648 C84.2628,23.064348 84.5977,23.409748 85.0218,23.662848 C85.4459,23.909048 85.9319,24.032148 86.4788,24.032148 Z M96.0718,26.381348 L96.0718,15.876348 L99.2215,15.876348 L99.2215,17.045848 C99.6247,16.594448 100.128,16.231948 100.73,15.958348 C101.338,15.684748 102.008,15.547948 102.741,15.547948 C103.547,15.547948 104.255,15.725848 104.864,16.081448 C105.479,16.430248 105.961,16.919248 106.31,17.548448 C106.66,18.170848 106.833,18.899248 106.833,19.733648 L106.833,26.381348 L103.685,26.381348 L103.685,20.400448 C103.685,19.648148 103.486,19.063348 103.089,18.646248 C102.699,18.222248 102.162,18.010148 101.479,18.010148 C101.013,18.010148 100.61,18.105848 100.268,18.297348 C99.9332,18.482048 99.6729,18.738548 99.4882,19.066848 C99.3107,19.388248 99.2215,19.754248 99.2215,20.164548 L99.2215,26.381348 L96.0718,26.381348 Z M113.84,26.709748 C112.793,26.709748 111.979,26.378048 111.398,25.714548 C110.817,25.044348 110.525,24.110748 110.525,22.913948 L110.525,18.266648 L109.12,18.266648 L109.12,15.876348 L110.525,15.876348 L110.525,11.936848 L113.675,11.936848 L113.675,15.876348 L115.984,15.876348 L115.984,18.266648 L113.675,18.266648 L113.675,22.688248 C113.675,23.084848 113.754,23.385848 113.911,23.591048 C114.076,23.796148 114.305,23.898748 114.599,23.898748 C114.927,23.898748 115.241,23.789348 115.543,23.570448 L116.333,26.094148 C115.977,26.285648 115.576,26.436148 115.132,26.545548 C114.694,26.654948 114.263,26.709748 113.84,26.709748 Z" id="Shape" fill="#000000" fill-rule="nonzero"></path>
            <path d="M119.054,26.379748 L119.054,8.734378 L122.204,8.734378 L122.204,26.379748 L119.054,26.379748 Z M125.896,26.379748 L125.896,15.874648 L129.046,15.874648 L129.046,26.379748 L125.896,26.379748 Z M127.476,13.689548 C127.135,13.689548 126.82,13.607448 126.532,13.443248 C126.252,13.272348 126.026,13.043148 125.855,12.755948 C125.684,12.468648 125.599,12.154048 125.599,11.812148 C125.599,11.470148 125.684,11.158948 125.855,10.878448 C126.026,10.598148 126.252,10.375848 126.532,10.211648 C126.82,10.040648 127.135,9.955248 127.476,9.955248 C127.818,9.955248 128.13,10.040648 128.41,10.211648 C128.69,10.375848 128.913,10.598148 129.077,10.878448 C129.248,11.158948 129.334,11.470148 129.334,11.812148 C129.334,12.154048 129.248,12.468648 129.077,12.755948 C128.913,13.043148 128.69,13.272348 128.41,13.443248 C128.13,13.607448 127.818,13.689548 127.476,13.689548 Z M132.759,26.379748 L132.759,15.874648 L135.909,15.874648 L135.909,17.044148 C136.313,16.592748 136.815,16.230348 137.417,15.956648 C138.026,15.683048 138.696,15.546348 139.428,15.546348 C140.234,15.546348 140.942,15.724148 141.551,16.079748 C142.167,16.428648 142.649,16.917548 142.998,17.546848 C143.347,18.169248 143.522,18.897648 143.522,19.731948 L143.522,26.379748 L140.372,26.379748 L140.372,20.398748 C140.372,19.646548 140.173,19.061748 139.777,18.644548 C139.387,18.220548 138.85,18.008448 138.166,18.008448 C137.701,18.008448 137.298,18.104248 136.955,18.295748 C136.621,18.480348 136.36,18.736948 136.176,19.065148 C135.998,19.386648 135.909,19.752548 135.909,20.162848 L135.909,26.379748 L132.759,26.379748 Z M147.026,26.379748 L147.026,8.734378 L150.175,8.734378 L150.175,19.711448 L154.053,15.874648 L158.136,15.874648 L152.996,21.024648 L158.372,26.379748 L154.33,26.379748 L150.175,22.224948 L150.175,26.379748 L147.026,26.379748 Z" id="Shape" fill="#4DACE1" fill-rule="nonzero"></path>
            <polygon id="Path" fill="#000000" fill-rule="nonzero" points="158.475 9.087888 161.836 9.087888 161.836 9.742348 160.541 9.742348 160.541 12.553848 159.77 12.553848 159.77 9.742348 158.475 9.742348"></polygon>
            <polygon id="Path" fill="#000000" fill-rule="nonzero" points="165.547 12.553848 165.547 10.542148 165.523 10.542148 164.526 12.166048 164.302 12.166048 163.306 10.542148 163.281 10.542148 163.281 12.553848 162.533 12.553848 162.533 9.087888 163.281 9.087888 164.451 10.978448 165.622 9.087888 166.344 9.087888 166.344 12.553848"></polygon>
        </g>
    </g>
</svg>